<?xml version="1.0" encoding="utf-8"?><svg viewBox="0 0 448 512" xmlns="http://www.w3.org/2000/svg" xmlns:xlink="http://www.w3.org/1999/xlink"><style>:root>svg{display:none}:root>svg:target{display:block}</style><svg aria-hidden="true" data-prefix="fas" data-icon="chevron-down" class="asvg-inline--fa afa-chevron-down afa-w-14" viewBox="0 0 448 512" id="arrow-down-white" xmlns="http://www.w3.org/2000/svg"><path fill="#fff" d="M207.029 381.476L12.686 187.132c-9.373-9.373-9.373-24.569 0-33.941l22.667-22.667c9.357-9.357 24.522-9.375 33.901-.04L224 284.505l154.745-154.021c9.379-9.335 24.544-9.317 33.901.04l22.667 22.667c9.373 9.373 9.373 24.569 0 33.941L240.971 381.476c-9.373 9.372-24.569 9.372-33.942 0z"/></svg><svg fill="none" viewBox="0 0 10 16" id="arrow-left" xmlns="http://www.w3.org/2000/svg"><path d="M1.769.5L0 2.269 5.731 8 0 13.731 1.769 15.5l7.5-7.5-7.5-7.5z" fill="currentColor"/></svg><svg fill="none" viewBox="0 0 30 40" id="arrow-right" xmlns="http://www.w3.org/2000/svg"><path d="M13.2 0L30 20.97 14 40H1.6l15.6-19.03L0 0h13.2z" fill="#676767"/></svg><svg fill="none" viewBox="0 0 80 80" id="box" xmlns="http://www.w3.org/2000/svg"><path d="M17.5 45a1.25 1.25 0 00-1.25 1.25v5a1.25 1.25 0 002.5 0v-5A1.25 1.25 0 0017.5 45zM22.5 47.5a1.25 1.25 0 00-1.25 1.25v5a1.25 1.25 0 002.5 0v-5a1.25 1.25 0 00-1.25-1.25zM68.093 54.209a1.25 1.25 0 00-1.4 2.07A7.5 7.5 0 1162.5 55a1.25 1.25 0 000-2.5 10 10 0 105.593 1.709z" fill="#fff"/><path d="M68.75 48.875V21.25a1.25 1.25 0 00-.614-1.076l-27.5-16.25a1.25 1.25 0 00-1.272 0l-27.5 16.25c-.027.015-.045.037-.07.055-.025.017-.049.037-.074.057a1.232 1.232 0 00-.276.305c0 .009-.015.014-.02.023v.008c-.07.127-.118.266-.141.41 0 .037-.012.072-.015.11-.004.037-.018.07-.018.108v32.5a1.249 1.249 0 00.614 1.076l27.5 16.25c.033.016.067.03.101.043.034.017.07.032.105.044a1.114 1.114 0 00.86 0 .981.981 0 00.106-.044c.033-.016.068-.024.1-.043l7.464-4.411a14.993 14.993 0 1020.65-17.79zM40 6.45l6.5 3.841-9.638 5.695a1.25 1.25 0 101.273 2.154l10.824-6.391 6.5 3.841-25.043 14.794-6.5-3.841 10.472-6.188a1.25 1.25 0 00-1.273-2.154l-11.656 6.89-6.502-3.842L40 6.45zM22.709 28.735l6.457 3.816v8.346l-6.457-3.816v-8.346zM41.25 67.81v-4.06a1.25 1.25 0 00-2.5 0v4.06l-25-14.773V23.441l6.459 3.816v10.537a1.251 1.251 0 00.614 1.077l8.957 5.294a1.25 1.25 0 001.886-1.076v-9.062l7.084 4.187V58.75a1.25 1.25 0 002.5 0V38.214l22.655-13.388a1.25 1.25 0 10-1.273-2.152L40 36.048l-7.125-4.21 25.042-14.8 8.333 4.924V48A14.94 14.94 0 0047.5 62.5c0 .523.028 1.046.083 1.566L41.25 67.81zM62.5 75A12.5 12.5 0 1175 62.5 12.514 12.514 0 0162.5 75z" fill="#fff"/><path d="M59.634 62.866a1.25 1.25 0 00-1.768 1.767l1.875 1.876a1.25 1.25 0 001.768 0l5.625-5.626a1.25 1.25 0 00-1.768-1.767l-4.741 4.741-.991-.991z" fill="#fff"/></svg><svg fill="none" viewBox="0 0 80 80" id="delivery" xmlns="http://www.w3.org/2000/svg"><path d="M1.446 24.208h4.983v-6.016c0-.389.152-.761.423-1.036a1.436 1.436 0 011.023-.429h51.402c.384 0 .751.154 1.022.43.272.274.424.646.424 1.035v6.026h9.156c.325.002.64.115.893.32.254.206.431.492.505.813l2.458 9.932h4.82c.383 0 .75.154 1.021.429.272.274.424.647.424 1.036v17.579c0 .388-.152.76-.424 1.036a1.436 1.436 0 01-1.022.429h-1.793a8.023 8.023 0 01-2.462 5.312 7.82 7.82 0 01-5.383 2.169H34.574c-.384 0-.752-.155-1.023-.43a1.474 1.474 0 010-2.071 1.436 1.436 0 011.023-.43h28.25a8 8 0 01-1.754-4.56H30.496a8.024 8.024 0 01-2.46 5.319 7.82 7.82 0 01-5.385 2.172h-8.319c-.383 0-.75-.155-1.022-.43a1.475 1.475 0 010-2.071 1.436 1.436 0 011.022-.43h2.227a8 8 0 01-1.754-4.56h-6.93c-.384 0-.752-.154-1.023-.43a1.475 1.475 0 01-.423-1.035v-9.766c0-.389.152-.761.423-1.036a1.436 1.436 0 011.023-.43H57.83v-1.62H7.875c-.384 0-.752-.155-1.023-.43A1.475 1.475 0 016.43 40v-6.31H3.855c-.383 0-.75-.154-1.022-.428a1.475 1.475 0 010-2.072c.271-.275.639-.429 1.022-.429H6.43v-3.623H1.446c-.384 0-.751-.155-1.023-.43a1.475 1.475 0 010-2.071c.272-.275.64-.43 1.023-.43zm67.306 2.93h-8.03v8.135h10.073l-2.043-8.135zm8.356 11.065H60.723v14.649h.703v-.049c.117-.334.255-.66.415-.976l.087-.176c.165-.319.352-.625.559-.918l.106-.147a8.04 8.04 0 01.713-.84l.068-.058c.26-.26.536-.501.828-.723l.078-.059c.307-.218.629-.413.963-.585l.155-.088c.311-.162.633-.302.963-.42l.184-.059a7.682 7.682 0 011.06-.264h.144a7.071 7.071 0 012.343 0h.144c.36.063.713.151 1.06.264l.183.059c.33.121.653.265.964.43l.155.087c.334.172.656.368.963.586l.068.05c.296.223.576.468.838.732l.058.048c.26.266.502.55.723.85l.097.127c.212.311.402.638.568.977l.077.156c.166.334.308.68.425 1.035h.693V38.203zm-3.21 17.09c0-.255-.019-.51-.057-.761a5.058 5.058 0 00-1.67-3.08 4.936 4.936 0 00-3.25-1.226 4.936 4.936 0 00-3.251 1.226 5.058 5.058 0 00-1.67 3.08 5.083 5.083 0 001.402 4.322 4.95 4.95 0 003.523 1.479 4.95 4.95 0 003.524-1.479 5.083 5.083 0 001.46-3.57l-.01.01zm-46.264 0c0-.255-.02-.51-.058-.761a5.058 5.058 0 00-1.67-3.08 4.936 4.936 0 00-3.25-1.226 4.935 4.935 0 00-3.251 1.226 5.058 5.058 0 00-1.67 3.08 5.083 5.083 0 001.402 4.322 4.95 4.95 0 003.523 1.479 4.95 4.95 0 003.524-1.479 5.083 5.083 0 001.46-3.57l-.01.01zM9.32 46.017v6.836h5.841v-.049c.117-.334.255-.66.415-.976l.087-.176c.165-.319.352-.625.559-.918l.106-.147c.218-.296.457-.576.713-.84l.067-.058c.26-.26.537-.501.83-.723l.077-.059c.307-.218.629-.413.963-.585l.154-.088a7.82 7.82 0 01.964-.42l.183-.059a7.684 7.684 0 011.06-.264h.145a7.071 7.071 0 012.342 0h.145c.36.063.713.151 1.06.264l.184.059c.33.121.652.265.963.43l.154.087c.335.172.657.368.964.586l.068.05c.296.223.576.468.838.732l.058.048c.26.266.502.55.723.85l.096.127c.213.311.403.638.57.977l.076.156c.166.334.308.68.424 1.035h27.682v-6.836l-48.51-.04zm0-15.255H21.37c.383 0 .75.154 1.022.43a1.475 1.475 0 010 2.07 1.436 1.436 0 01-1.022.43H9.32v4.883h48.511V27.138h-7.595c-.383 0-.751-.155-1.022-.43a1.475 1.475 0 010-2.071c.271-.275.639-.43 1.022-.43h7.595v-4.55H9.321v4.56h4.655c.383 0 .751.155 1.022.43a1.475 1.475 0 010 2.072 1.436 1.436 0 01-1.022.428H9.32v3.614z" fill="#fff"/></svg><svg fill="none" viewBox="0 0 75 76" id="socket" xmlns="http://www.w3.org/2000/svg"><mask id="fa" maskUnits="userSpaceOnUse" x="27.852" y="28.143" width="47" height="47" fill="#000"><path fill="#fff" d="M27.852 28.143h47v47h-47z"/><path d="M34.11 56.072a2.99 2.99 0 00.88 2.128l.72.72a3 3 0 002.136.88c.404.002.804-.08 1.176-.24L42.454 63a14.232 14.232 0 0010.128 4.192 14.092 14.092 0 004.112-.6L60.91 70.8a.8.8 0 001.128 0l1.352-1.352 5.088 5.088a.8.8 0 001.128 0l4.648-4.648a.8.8 0 000-1.128l-5.088-5.088 1.344-1.32a.802.802 0 000-1.152l-4.24-4.24c.402-1.334.604-2.72.6-4.112a14.233 14.233 0 00-4.192-10.128l-3.368-3.408c.16-.371.241-.772.24-1.176A2.998 2.998 0 0058.67 36l-.72-.72a3.096 3.096 0 00-4.264 0l-.864.864-5.88-5.888a3.45 3.45 0 00-5.737 1.048 3.448 3.448 0 00.865 3.824l5.888 5.888-7.2 7.2-5.92-5.896a3.449 3.449 0 10-4.872 4.872l5.888 5.88-.864.864a3 3 0 00-.88 2.136zM72.582 69.36l-3.512 3.512-4.52-4.52 3.512-3.512 4.52 4.52zm-3.736-7.568l-1.352 1.344-4.648 4.648-1.344 1.352L58.342 66a14.296 14.296 0 007.368-7.368l3.136 3.16zM61.574 43.88A12.72 12.72 0 1143.59 61.864l-3.28-3.28L58.294 40.6l3.28 3.28zM43.158 34a1.856 1.856 0 010-2.608 1.856 1.856 0 012.608 0l5.888 5.888-2.608 2.6L43.158 34zM31.102 46.056a1.848 1.848 0 010-2.608 1.856 1.856 0 012.608 0l5.88 5.888-2.6 2.608-5.888-5.888zm5.008 9.016l1.424-1.432 3.736-3.736 8.344-8.328 3.736-3.736 1.432-1.44a1.381 1.381 0 011-.416 1.368 1.368 0 01.992.416l.728.72a1.407 1.407 0 01.408 1 1.392 1.392 0 01-.408.992l-18.664 18.68a1.44 1.44 0 01-1.992 0l-.72-.728a1.368 1.368 0 01-.416-.992 1.383 1.383 0 01.4-1z"/></mask><path d="M34.11 56.072a2.99 2.99 0 00.88 2.128l.72.72a3 3 0 002.136.88c.404.002.804-.08 1.176-.24L42.454 63a14.232 14.232 0 0010.128 4.192 14.092 14.092 0 004.112-.6L60.91 70.8a.8.8 0 001.128 0l1.352-1.352 5.088 5.088a.8.8 0 001.128 0l4.648-4.648a.8.8 0 000-1.128l-5.088-5.088 1.344-1.32a.802.802 0 000-1.152l-4.24-4.24c.402-1.334.604-2.72.6-4.112a14.233 14.233 0 00-4.192-10.128l-3.368-3.408c.16-.371.241-.772.24-1.176A2.998 2.998 0 0058.67 36l-.72-.72a3.096 3.096 0 00-4.264 0l-.864.864-5.88-5.888a3.45 3.45 0 00-5.737 1.048 3.448 3.448 0 00.865 3.824l5.888 5.888-7.2 7.2-5.92-5.896a3.449 3.449 0 10-4.872 4.872l5.888 5.88-.864.864a3 3 0 00-.88 2.136zM72.582 69.36l-3.512 3.512-4.52-4.52 3.512-3.512 4.52 4.52zm-3.736-7.568l-1.352 1.344-4.648 4.648-1.344 1.352L58.342 66a14.296 14.296 0 007.368-7.368l3.136 3.16zM61.574 43.88A12.72 12.72 0 1143.59 61.864l-3.28-3.28L58.294 40.6l3.28 3.28zM43.158 34a1.856 1.856 0 010-2.608 1.856 1.856 0 012.608 0l5.888 5.888-2.608 2.6L43.158 34zM31.102 46.056a1.848 1.848 0 010-2.608 1.856 1.856 0 012.608 0l5.88 5.888-2.6 2.608-5.888-5.888zm5.008 9.016l1.424-1.432 3.736-3.736 8.344-8.328 3.736-3.736 1.432-1.44a1.381 1.381 0 011-.416 1.368 1.368 0 01.992.416l.728.72a1.407 1.407 0 01.408 1 1.392 1.392 0 01-.408.992l-18.664 18.68a1.44 1.44 0 01-1.992 0l-.72-.728a1.368 1.368 0 01-.416-.992 1.383 1.383 0 01.4-1z" fill="#fff"/><path d="M34.11 56.072a2.99 2.99 0 00.88 2.128l.72.72a3 3 0 002.136.88c.404.002.804-.08 1.176-.24L42.454 63a14.232 14.232 0 0010.128 4.192 14.092 14.092 0 004.112-.6L60.91 70.8a.8.8 0 001.128 0l1.352-1.352 5.088 5.088a.8.8 0 001.128 0l4.648-4.648a.8.8 0 000-1.128l-5.088-5.088 1.344-1.32a.802.802 0 000-1.152l-4.24-4.24c.402-1.334.604-2.72.6-4.112a14.233 14.233 0 00-4.192-10.128l-3.368-3.408c.16-.371.241-.772.24-1.176A2.998 2.998 0 0058.67 36l-.72-.72a3.096 3.096 0 00-4.264 0l-.864.864-5.88-5.888a3.45 3.45 0 00-5.737 1.048 3.448 3.448 0 00.865 3.824l5.888 5.888-7.2 7.2-5.92-5.896a3.449 3.449 0 10-4.872 4.872l5.888 5.88-.864.864a3 3 0 00-.88 2.136v0zM72.582 69.36l-3.512 3.512-4.52-4.52 3.512-3.512 4.52 4.52zm-3.736-7.568l-1.352 1.344-4.648 4.648-1.344 1.352L58.342 66a14.296 14.296 0 007.368-7.368l3.136 3.16zM61.574 43.88A12.72 12.72 0 1143.59 61.864l-3.28-3.28L58.294 40.6l3.28 3.28zM43.158 34a1.856 1.856 0 010-2.608 1.856 1.856 0 012.608 0l5.888 5.888-2.608 2.6L43.158 34zM31.102 46.056a1.848 1.848 0 010-2.608 1.856 1.856 0 012.608 0l5.88 5.888-2.6 2.608-5.888-5.888zm5.008 9.016l1.424-1.432 3.736-3.736 8.344-8.328 3.736-3.736 1.432-1.44a1.381 1.381 0 011-.416 1.368 1.368 0 01.992.416l.728.72a1.407 1.407 0 01.408 1 1.392 1.392 0 01-.408.992l-18.664 18.68a1.44 1.44 0 01-1.992 0l-.72-.728a1.368 1.368 0 01-.416-.992 1.383 1.383 0 01.4-1v0z" stroke="#fff" stroke-width=".6" mask="url(#fa)"/><path d="M17.436 40.85h0l-.72-.72.72.72zm0 0a3.174 3.174 0 004.475 0h0m-4.475 0h4.476m0 0l18.624-18.68h0M21.912 40.85l18.624-18.68m0 0a3.174 3.174 0 000-4.476h0m0 4.476v-4.476m0 0l-.72-.72h0m.72.72l-.72-.72m0 0l-.003-.003m.003.003l-.003-.003m0 0a3.246 3.246 0 00-3.362-.698l-3.379-3.379s0 0 0 0a14.383 14.383 0 00-10.234-4.236m16.975 8.313L12.03 6.34m0 0l1.246-1.246h0a.95.95 0 011.34 0h0l4.152 4.145a14.239 14.239 0 014.07-.581M12.03 6.34L7.024 1.326h0a.95.95 0 00-1.34 0h0L1.036 5.974h0a.95.95 0 000 1.34h0l4.983 4.983-1.215 1.244a.95.95 0 000 1.366h.002l4.174 4.176a14.238 14.238 0 00-.58 4.069M12.03 6.34l.606 27.046A14.38 14.38 0 018.4 23.152M22.838 8.658s0 0 0 0v.15-.15s0 0 0 0zM8.4 23.152s0 0 0 0h.15-.15s0 0 0 0zm7.392 14.736c-.002-.39.07-.778.213-1.14l-3.37-3.362 4.08 6.744a3.15 3.15 0 01-.923-2.242zm0 0s0 0 0 0h.15-.15s0 0 0 0zm21.78-19.938h.003a1.258 1.258 0 01.893.364s0 0 0 0l.719.727h0l.002.003a1.219 1.219 0 01.37.883v.004a1.235 1.235 0 01-.356.891l-18.67 18.67s0 0 0 0a1.282 1.282 0 01-1.782 0h-.001l-.726-.718s0 0 0 0a1.258 1.258 0 01-.364-.893v-.002a1.242 1.242 0 01.364-.885h0l18.664-18.68a1.241 1.241 0 01.885-.364zm-5.849-3.708h0l3.175 3.174-17.772 17.772-3.174-3.174s0 0 0 0a12.57 12.57 0 018.886-21.456v-.15.15a12.45 12.45 0 018.885 3.684zM12.68 8.322h0l1.238-1.246 2.899 2.876a14.446 14.446 0 00-7.155 7.155L6.77 14.208l1.245-1.238h0l4.665-4.648zM3.05 6.64l3.3-3.3 4.308 4.308-3.3 3.3L3.05 6.64z" fill="#fff" stroke="#fff" stroke-width=".3"/></svg><svg fill="none" viewBox="0 0 80 80" id="tools" xmlns="http://www.w3.org/2000/svg"><g clip-path="url(#gclip0_208_79)"><path d="M54.796 44.16l-1.506 1.52-5.153-5.12.08-.08 5.787-5.84 3.33.16c3.25.16 6.342-1.52 7.927-4.4L71.207 20l-3.964-4-6.58 6.64-3.488-3.44 6.66-6.48-4.44-4.48-9.99 6.24c-2.616 1.6-4.201 4.64-4.122 7.76L45.44 26l-5.866 5.84-.08.08-10.306-10.4-3.567-8.4-10.544-3.2-3.885 3.92 3.171 10.64 8.324 3.44 10.307 10.4-.635.64-5.787 5.84-3.33-.16c-3.25-.16-6.342 1.52-7.928 4.4L9.37 59.44l3.964 4 6.58-6.64 3.489 3.52-6.66 6.48 4.44 4.48 9.99-6.24c2.615-1.6 4.201-4.64 4.122-7.76l-.159-3.68 5.867-5.84.555-.56 5.232 5.12-1.585 1.6 14.27 14.24c1.348 1.36 3.092 2 4.836 2 1.744 0 3.488-.72 4.836-2 1.268-1.28 1.982-2.96 1.982-4.88s-.714-3.6-1.982-4.88l-14.35-14.24zM23.956 25.6l-7.451-3.28-2.379-7.68 1.665-1.68 7.77 2.16 3.012 7.68 10.544 10.64-2.775 2.8L23.957 25.6zm23.626 1.2l-.159-4.88c0-2.24 1.11-4.4 2.934-5.52l8.483-5.2 1.506 1.36-6.58 6.64 7.056 7.12 6.58-6.64.872.88-4.915 8.64c-1.269 2-3.33 3.28-5.709 3.12l-4.44-.24-20.295 20.64.08 4.88c0 2.24-1.11 4.4-2.934 5.52l-8.403 5.28-1.507-1.36 6.58-6.64-7.055-7.12-6.58 6.64-.873-.88 4.916-8.64c1.268-2 3.33-3.28 5.708-3.12l4.44.24L47.582 26.8zM43.38 45.6l3.092-3.12 5.153 4.96-3.092 3.12-5.153-4.96zm24.101 20.8c-1.744 1.76-4.44 1.76-6.184 0L48.771 53.92l6.184-6.24 12.526 12.48c.714.88 1.269 1.84 1.269 3.12s-.397 2.24-1.269 3.12z" fill="#fff"/></g><defs><clipPath id="gclip0_208_79"><path fill="#fff" d="M0 0h80v80H0z"/></clipPath></defs></svg></svg>