<svg width="80" height="80" viewBox="0 0 80 80" fill="none" xmlns="http://www.w3.org/2000/svg">
<path d="M1.44578 24.2079H6.42891V18.192C6.42891 17.8035 6.58124 17.4308 6.85237 17.1561C7.1235 16.8814 7.49125 16.7271 7.87469 16.7271H59.2771C59.6606 16.7271 60.0283 16.8814 60.2994 17.1561C60.5706 17.4308 60.7229 17.8035 60.7229 18.192V24.2177H69.8795C70.2042 24.2201 70.5186 24.3331 70.7721 24.5387C71.0256 24.7442 71.2035 25.0301 71.2771 25.3506L73.7349 35.2827H78.5542C78.9377 35.2827 79.3054 35.4371 79.5765 35.7118C79.8477 35.9865 80 36.3591 80 36.7476V54.3267C80 54.7152 79.8477 55.0878 79.5765 55.3626C79.3054 55.6373 78.9377 55.7916 78.5542 55.7916H76.7614C76.6365 57.8152 75.756 59.7148 74.2987 61.1043C72.8414 62.4938 70.9167 63.269 68.9157 63.2725H34.5735C34.19 63.2725 33.8223 63.1182 33.5512 62.8434C33.28 62.5687 33.1277 62.1961 33.1277 61.8076C33.1277 61.4191 33.28 61.0465 33.5512 60.7717C33.8223 60.497 34.19 60.3427 34.5735 60.3427H62.8241C61.7799 59.0475 61.166 57.4514 61.0699 55.7819H30.4964C30.3738 57.8072 29.4943 59.7091 28.0368 61.1007C26.5793 62.4922 24.6532 63.2689 22.6506 63.2725H14.3325C13.9491 63.2725 13.5813 63.1182 13.3102 62.8434C13.0391 62.5687 12.8867 62.1961 12.8867 61.8076C12.8867 61.4191 13.0391 61.0465 13.3102 60.7717C13.5813 60.497 13.9491 60.3427 14.3325 60.3427H16.559C15.5148 59.0475 14.9009 57.4514 14.8048 55.7819H7.87469C7.49125 55.7819 7.1235 55.6275 6.85237 55.3528C6.58124 55.0781 6.42891 54.7055 6.42891 54.317V44.5508C6.42891 44.1623 6.58124 43.7897 6.85237 43.5149C7.1235 43.2402 7.49125 43.0859 7.87469 43.0859H57.8313V41.4647H7.87469C7.49125 41.4647 7.1235 41.3104 6.85237 41.0356C6.58124 40.7609 6.42891 40.3883 6.42891 39.9998V33.6908H3.85542C3.47198 33.6908 3.10423 33.5365 2.8331 33.2618C2.56196 32.9871 2.40964 32.6144 2.40964 32.2259C2.40964 31.8374 2.56196 31.4648 2.8331 31.1901C3.10423 30.9153 3.47198 30.761 3.85542 30.761H6.42891V27.1378H1.44578C1.06233 27.1378 0.694595 26.9834 0.423454 26.7087C0.152321 26.434 0 26.0614 0 25.6728C0 25.2843 0.152321 24.9117 0.423454 24.637C0.694595 24.3623 1.06233 24.2079 1.44578 24.2079ZM68.7518 27.1378H60.7229V35.273H70.7952L68.7518 27.1378ZM77.1084 38.2028H60.7229V52.852H61.4265V52.8032C61.5426 52.4685 61.6811 52.1422 61.841 51.8266L61.9277 51.6508C62.0934 51.3323 62.2802 51.0256 62.4867 50.7328L62.5928 50.5863C62.8112 50.2901 63.0496 50.0095 63.306 49.7464L63.3735 49.6878C63.6332 49.428 63.9102 49.1866 64.2024 48.9651L64.2795 48.9065C64.5868 48.6885 64.9089 48.4927 65.2434 48.3205L65.3976 48.2326C65.7093 48.0711 66.0313 47.9308 66.3614 47.8127L66.5446 47.7541C66.8915 47.6411 67.2457 47.553 67.6048 47.4904H67.7494C68.5248 47.3602 69.3161 47.3602 70.0916 47.4904H70.2361C70.5952 47.553 70.9495 47.6411 71.2964 47.7541L71.4795 47.8127C71.8099 47.934 72.1319 48.0776 72.4434 48.2424L72.5976 48.3303C72.9321 48.5024 73.2542 48.6982 73.5614 48.9163L73.6289 48.9651C73.9248 49.1893 74.205 49.4341 74.4675 49.6976L74.5253 49.7464C74.7855 50.0122 75.027 50.2962 75.2482 50.596L75.3446 50.723C75.5568 51.0344 75.7469 51.3608 75.9133 51.6996L75.9904 51.8559C76.156 52.1902 76.2977 52.5362 76.4145 52.8911H77.1084V38.2028ZM73.8988 55.2936C73.8987 55.0385 73.8793 54.7839 73.841 54.5318C73.6672 53.3353 73.0745 52.2421 72.1712 51.4516C71.2678 50.6612 70.114 50.2263 68.9205 50.2263C67.7269 50.2263 66.5732 50.6612 65.6698 51.4516C64.7665 52.2421 64.1738 53.3353 64 54.5318C63.962 54.7806 63.9426 55.032 63.9422 55.2838C63.9422 56.6229 64.4672 57.9072 65.4017 58.854C66.3362 59.8009 67.6037 60.3329 68.9253 60.3329C70.2469 60.3329 71.5144 59.8009 72.4489 58.854C73.3834 57.9072 73.9084 56.6229 73.9084 55.2838L73.8988 55.2936ZM27.6337 55.2936C27.6336 55.0385 27.6143 54.7839 27.5759 54.5318C27.4021 53.3353 26.8094 52.2421 25.9061 51.4516C25.0028 50.6612 23.849 50.2263 22.6554 50.2263C21.4618 50.2263 20.3081 50.6612 19.4048 51.4516C18.5014 52.2421 17.9087 53.3353 17.7349 54.5318C17.6969 54.7806 17.6776 55.032 17.6771 55.2838C17.6771 56.6229 18.2021 57.9072 19.1366 58.854C20.0711 59.8009 21.3386 60.3329 22.6602 60.3329C23.9818 60.3329 25.2493 59.8009 26.1838 58.854C27.1184 57.9072 27.6434 56.6229 27.6434 55.2838L27.6337 55.2936ZM9.32048 46.0157V52.852H15.1614V52.8032C15.2776 52.4685 15.416 52.1422 15.5759 51.8266L15.6627 51.6508C15.8283 51.3323 16.0151 51.0256 16.2217 50.7328L16.3277 50.5863C16.5462 50.2901 16.7845 50.0095 17.041 49.7464L17.1084 49.6878C17.3681 49.428 17.6451 49.1866 17.9373 48.9651L18.0145 48.9065C18.3218 48.6885 18.6438 48.4927 18.9783 48.3205L19.1325 48.2326C19.4442 48.0711 19.7662 47.9308 20.0964 47.8127L20.2795 47.7541C20.6264 47.6411 20.9807 47.553 21.3398 47.4904H21.4843C22.2598 47.3602 23.0511 47.3602 23.8265 47.4904H23.9711C24.3302 47.553 24.6845 47.6411 25.0313 47.7541L25.2145 47.8127C25.5448 47.934 25.8668 48.0776 26.1783 48.2424L26.3325 48.3303C26.667 48.5024 26.9891 48.6982 27.2964 48.9163L27.3639 48.9651C27.6597 49.1893 27.9399 49.4341 28.2024 49.6976L28.2602 49.7464C28.5204 50.0122 28.7619 50.2962 28.9831 50.596L29.0795 50.723C29.2917 51.0344 29.4818 51.3608 29.6482 51.6996L29.7253 51.8559C29.8909 52.1902 30.0327 52.5362 30.1494 52.8911H57.8313V46.0548L9.32048 46.0157ZM9.32048 30.761H21.3687C21.7521 30.761 22.1199 30.9153 22.391 31.1901C22.6621 31.4648 22.8145 31.8374 22.8145 32.2259C22.8145 32.6144 22.6621 32.9871 22.391 33.2618C22.1199 33.5365 21.7521 33.6908 21.3687 33.6908H9.32048V38.5739H57.8313V27.1378H50.2361C49.8527 27.1378 49.485 26.9834 49.2138 26.7087C48.9427 26.434 48.7904 26.0614 48.7904 25.6728C48.7904 25.2843 48.9427 24.9117 49.2138 24.637C49.485 24.3623 49.8527 24.2079 50.2361 24.2079H57.8313V19.6569H9.32048V24.2177H13.9759C14.3593 24.2177 14.7271 24.372 14.9982 24.6467C15.2694 24.9215 15.4217 25.2941 15.4217 25.6826C15.4217 26.0711 15.2694 26.4437 14.9982 26.7185C14.7271 26.9932 14.3593 27.1475 13.9759 27.1475H9.32048V30.761Z" fill="white"/>
</svg>
