<svg width="80px" fill="#fff" height="80px" version="1.1" viewBox="0 0 700 700" xmlns="http://www.w3.org/2000/svg" xmlns:xlink="http://www.w3.org/1999/xlink">
  <path stroke-width="20" d="m324.8 406.5c-0.015625 5.5898 2.1992 10.953 6.1602 14.895l5.0391 5.0391v0.003906c3.9609 3.9648 9.3438 6.1836 14.953 6.1602 2.8281 0.007813 5.6328-0.5625 8.2305-1.6797l24.023 24.078c18.766 18.855 44.297 29.422 70.898 29.344 9.75 0.03125 19.449-1.3828 28.781-4.1992l29.512 29.457c2.1875 2.168 5.7148 2.168 7.8984 0l9.4648-9.4648 35.617 35.617h-0.003906c1.0586 1.0469 2.4883 1.6289 3.9766 1.6211 1.4688-0.003906 2.8789-0.58984 3.9219-1.6211l32.535-32.535v-0.003906c2.1719-2.1836 2.1719-5.7109 0-7.8945l-35.617-35.617 9.4102-9.2383c1.0938-1.0547 1.7109-2.5117 1.7109-4.0312 0-1.5234-0.61719-2.9766-1.7109-4.0352l-29.68-29.68c2.8125-9.332 4.2305-19.035 4.1992-28.781 0.074218-26.602-10.492-52.133-29.344-70.898l-23.578-23.855c1.1211-2.5977 1.6914-5.4023 1.6797-8.2305 0.027344-5.6094-2.1914-10.992-6.1602-14.953l-5.0391-5.0391c-4.0273-3.8242-9.3711-5.957-14.922-5.957-5.5547 0-10.898 2.1328-14.926 5.957l-6.0469 6.0469-41.16-41.215c-4.4531-4.8398-10.688-7.6523-17.262-7.7891-6.5742-0.13672-12.918 2.4141-17.566 7.0664-4.6484 4.6484-7.1992 10.992-7.0664 17.566 0.13672 6.5742 2.9492 12.809 7.7891 17.258l41.215 41.215-50.398 50.398-41.441-41.27c-4.4492-4.8359-10.684-7.6484-17.258-7.7852s-12.918 2.4141-17.566 7.0625c-4.6523 4.6484-7.2031 10.996-7.0664 17.57 0.13672 6.5742 2.9492 12.805 7.7891 17.258l41.215 41.16-6.0469 6.0469c-3.9688 3.9648-6.1875 9.3477-6.1602 14.953zm269.3 93.016-24.586 24.586-31.641-31.641 24.586-24.586zm-26.152-52.977-9.4648 9.4062-32.535 32.535-9.4062 9.4648-22.121-21.949c23.066-10.09 41.484-28.508 51.574-51.574zm-50.906-125.38c17.34 16.555 27.27 39.398 27.547 63.371 0.27344 23.969-9.125 47.035-26.074 63.988-16.953 16.949-40.02 26.348-63.988 26.074-23.973-0.27734-46.816-10.207-63.371-27.547l-22.961-22.961 125.89-125.89zm-128.91-69.16c-4.9961-5.0586-4.9961-13.195 0-18.258 5.0586-4.9922 13.195-4.9922 18.254 0l41.215 41.215-18.258 18.199zm-84.395 84.391c-5.0234-5.0469-5.0234-13.207 0-18.254 5.0625-4.9961 13.199-4.9961 18.258 0l41.16 41.215-18.199 18.258zm35.059 63.113 9.9688-10.023 26.152-26.152 58.406-58.297 26.152-26.152 10.023-10.078c1.8398-1.8828 4.3672-2.9336 7-2.9141 2.6172-0.015625 5.125 1.0352 6.9453 2.9141l5.0977 5.0391h-0.003906c1.8438 1.8594 2.875 4.3789 2.8555 7 0.015624 2.6016-1.0117 5.1055-2.8555 6.9453l-130.65 130.76c-3.8984 3.7344-10.043 3.7344-13.941 0l-5.0391-5.0977-0.003906 0.003907c-1.875-1.8203-2.9297-4.3281-2.9102-6.9453-0.050781-2.6172 0.96094-5.1406 2.8008-7z"/>
  <path stroke-width="20" d="m129.64 100.07-9.2422 9.4648c-1.0938 1.0547-1.7109 2.5117-1.7109 4.0312 0 1.5234 0.61719 2.9766 1.7109 4.0352l29.68 29.68c-2.8125 9.332-4.2305 19.035-4.1992 28.781-0.074218 26.602 10.492 52.133 29.344 70.898l24.078 24.023h0.003907c-1.1211 2.5977-1.6914 5.4023-1.6797 8.2305-0.027344 5.6094 2.1914 10.992 6.1602 14.953l5.0391 5.0391c3.9648 3.9453 9.332 6.1562 14.922 6.1562 5.5938 0 10.961-2.2109 14.926-6.1562l130.37-130.76c3.9453-3.9688 6.1562-9.332 6.1562-14.926s-2.2109-10.957-6.1562-14.922l-5.0391-5.0391v-0.003906c-3.0117-2.875-6.793-4.8242-10.883-5.6094-4.0938-0.78516-8.3242-0.37109-12.188 1.1875l-24.137-24.137c-18.766-18.855-44.297-29.422-70.898-29.344-9.75-0.03125-19.449 1.3828-28.781 4.1992l-29.512-29.457c-2.1875-2.168-5.7148-2.168-7.8984 0l-9.4648 9.4648-35.781-35.84c-2.1836-2.1719-5.7109-2.1719-7.8984 0l-32.535 32.535c-2.1719 2.1875-2.1719 5.7148 0 7.8984zm212.46 41.383v0.003906c1.8398-1.8438 4.3398-2.8711 6.9414-2.8555 2.6211-0.019531 5.1406 1.0117 7 2.8555l5.0391 5.0977 0.003906-0.003907c1.875 1.8203 2.9297 4.3281 2.9102 6.9453 0.050781 2.6172-0.96094 5.1406-2.8008 7l-130.7 130.7c-3.8867 3.7617-10.059 3.7617-13.945 0l-5.0977-5.0391h0.003906c-1.8438-1.8594-2.875-4.3789-2.8555-7-0.015624-2.6016 1.0117-5.1055 2.8555-6.9453zm-96.211-54.598c23.633-0.082031 46.309 9.3164 62.945 26.098l22.961 22.961-125.89 125.89-22.961-22.961h0.003906c-16.691-16.699-26.066-39.34-26.062-62.949 0-23.609 9.3789-46.25 26.066-62.945 16.691-16.695 39.332-26.082 62.938-26.09zm-71.848-15.344 9.4062-9.4648 22.121 21.953c-23.066 10.09-41.484 28.508-51.574 51.574l-22.062-22.121 9.4648-9.4062zm-43.566-35.617 31.641 31.641-24.586 24.586-31.641-31.641z"/>
</svg>
