<?xml version="1.0" encoding="utf-8"?><svg viewBox="0 0 448 512" xmlns="http://www.w3.org/2000/svg" xmlns:xlink="http://www.w3.org/1999/xlink"><style>:root>svg{display:none}:root>svg:target{display:block}</style><svg aria-hidden="true" data-prefix="fas" data-icon="chevron-down" class="asvg-inline--fa afa-chevron-down afa-w-14" viewBox="0 0 448 512" id="arrow-down-white" xmlns="http://www.w3.org/2000/svg"><path fill="#fff" d="M207.029 381.476L12.686 187.132c-9.373-9.373-9.373-24.569 0-33.941l22.667-22.667c9.357-9.357 24.522-9.375 33.901-.04L224 284.505l154.745-154.021c9.379-9.335 24.544-9.317 33.901.04l22.667 22.667c9.373 9.373 9.373 24.569 0 33.941L240.971 381.476c-9.373 9.372-24.569 9.372-33.942 0z"/></svg><svg fill="none" viewBox="0 0 10 16" id="arrow-left" xmlns="http://www.w3.org/2000/svg"><path d="M1.769.5L0 2.269 5.731 8 0 13.731 1.769 15.5l7.5-7.5-7.5-7.5z" fill="currentColor"/></svg><svg fill="none" viewBox="0 0 30 40" id="arrow-right" xmlns="http://www.w3.org/2000/svg"><path d="M13.2 0L30 20.97 14 40H1.6l15.6-19.03L0 0h13.2z" fill="#676767"/></svg><svg fill="none" viewBox="0 0 80 80" id="box" xmlns="http://www.w3.org/2000/svg"><path d="M17.5 45a1.25 1.25 0 00-1.25 1.25v5a1.25 1.25 0 002.5 0v-5A1.25 1.25 0 0017.5 45zM22.5 47.5a1.25 1.25 0 00-1.25 1.25v5a1.25 1.25 0 002.5 0v-5a1.25 1.25 0 00-1.25-1.25zM68.093 54.209a1.25 1.25 0 00-1.4 2.07A7.5 7.5 0 1162.5 55a1.25 1.25 0 000-2.5 10 10 0 105.593 1.709z" fill="#fff"/><path d="M68.75 48.875V21.25a1.25 1.25 0 00-.614-1.076l-27.5-16.25a1.25 1.25 0 00-1.272 0l-27.5 16.25c-.027.015-.045.037-.07.055-.025.017-.049.037-.074.057a1.232 1.232 0 00-.276.305c0 .009-.015.014-.02.023v.008c-.07.127-.118.266-.141.41 0 .037-.012.072-.015.11-.004.037-.018.07-.018.108v32.5a1.249 1.249 0 00.614 1.076l27.5 16.25c.033.016.067.03.101.043.034.017.07.032.105.044a1.114 1.114 0 00.86 0 .981.981 0 00.106-.044c.033-.016.068-.024.1-.043l7.464-4.411a14.993 14.993 0 1020.65-17.79zM40 6.45l6.5 3.841-9.638 5.695a1.25 1.25 0 101.273 2.154l10.824-6.391 6.5 3.841-25.043 14.794-6.5-3.841 10.472-6.188a1.25 1.25 0 00-1.273-2.154l-11.656 6.89-6.502-3.842L40 6.45zM22.709 28.735l6.457 3.816v8.346l-6.457-3.816v-8.346zM41.25 67.81v-4.06a1.25 1.25 0 00-2.5 0v4.06l-25-14.773V23.441l6.459 3.816v10.537a1.251 1.251 0 00.614 1.077l8.957 5.294a1.25 1.25 0 001.886-1.076v-9.062l7.084 4.187V58.75a1.25 1.25 0 002.5 0V38.214l22.655-13.388a1.25 1.25 0 10-1.273-2.152L40 36.048l-7.125-4.21 25.042-14.8 8.333 4.924V48A14.94 14.94 0 0047.5 62.5c0 .523.028 1.046.083 1.566L41.25 67.81zM62.5 75A12.5 12.5 0 1175 62.5 12.514 12.514 0 0162.5 75z" fill="#fff"/><path d="M59.634 62.866a1.25 1.25 0 00-1.768 1.767l1.875 1.876a1.25 1.25 0 001.768 0l5.625-5.626a1.25 1.25 0 00-1.768-1.767l-4.741 4.741-.991-.991z" fill="#fff"/></svg><svg fill="none" viewBox="0 0 10 15" id="breadcrumbs-arrow" xmlns="http://www.w3.org/2000/svg"><path d="M4.4.5L10 7.84 4.667 14.5H.533l5.2-6.66L0 .5h4.4z" fill="#8E8E8E"/></svg><svg fill="none" viewBox="0 0 15 16" id="category-arrow" xmlns="http://www.w3.org/2000/svg"><g clip-path="url(#fclip0_386_70)"><path d="M15 5.269L13.231 3.5 7.5 9.231 1.769 3.5 0 5.269l7.5 7.5 7.5-7.5z" fill="#2B2B37"/></g><defs><clipPath id="fclip0_386_70"><path fill="#fff" transform="rotate(90 7.25 7.75)" d="M0 0h15v15H0z"/></clipPath></defs></svg><svg fill="none" viewBox="0 0 25 25" id="cross" xmlns="http://www.w3.org/2000/svg"><path fill="#4D4D4D" d="M0 2.273L2.273 0 25 22.727 22.727 25z"/><path fill="#4D4D4D" d="M2.273 25L0 22.727 22.727 0 25 2.273z"/></svg><svg fill="none" viewBox="0 0 80 80" id="delivery" xmlns="http://www.w3.org/2000/svg"><path d="M1.446 24.208h4.983v-6.016c0-.389.152-.761.423-1.036a1.436 1.436 0 011.023-.429h51.402c.384 0 .751.154 1.022.43.272.274.424.646.424 1.035v6.026h9.156c.325.002.64.115.893.32.254.206.431.492.505.813l2.458 9.932h4.82c.383 0 .75.154 1.021.429.272.274.424.647.424 1.036v17.579c0 .388-.152.76-.424 1.036a1.436 1.436 0 01-1.022.429h-1.793a8.023 8.023 0 01-2.462 5.312 7.82 7.82 0 01-5.383 2.169H34.574c-.384 0-.752-.155-1.023-.43a1.474 1.474 0 010-2.071 1.436 1.436 0 011.023-.43h28.25a8 8 0 01-1.754-4.56H30.496a8.024 8.024 0 01-2.46 5.319 7.82 7.82 0 01-5.385 2.172h-8.319c-.383 0-.75-.155-1.022-.43a1.475 1.475 0 010-2.071 1.436 1.436 0 011.022-.43h2.227a8 8 0 01-1.754-4.56h-6.93c-.384 0-.752-.154-1.023-.43a1.475 1.475 0 01-.423-1.035v-9.766c0-.389.152-.761.423-1.036a1.436 1.436 0 011.023-.43H57.83v-1.62H7.875c-.384 0-.752-.155-1.023-.43A1.475 1.475 0 016.43 40v-6.31H3.855c-.383 0-.75-.154-1.022-.428a1.475 1.475 0 010-2.072c.271-.275.639-.429 1.022-.429H6.43v-3.623H1.446c-.384 0-.751-.155-1.023-.43a1.475 1.475 0 010-2.071c.272-.275.64-.43 1.023-.43zm67.306 2.93h-8.03v8.135h10.073l-2.043-8.135zm8.356 11.065H60.723v14.649h.703v-.049c.117-.334.255-.66.415-.976l.087-.176c.165-.319.352-.625.559-.918l.106-.147a8.04 8.04 0 01.713-.84l.068-.058c.26-.26.536-.501.828-.723l.078-.059c.307-.218.629-.413.963-.585l.155-.088c.311-.162.633-.302.963-.42l.184-.059a7.682 7.682 0 011.06-.264h.144a7.071 7.071 0 012.343 0h.144c.36.063.713.151 1.06.264l.183.059c.33.121.653.265.964.43l.155.087c.334.172.656.368.963.586l.068.05c.296.223.576.468.838.732l.058.048c.26.266.502.55.723.85l.097.127c.212.311.402.638.568.977l.077.156c.166.334.308.68.425 1.035h.693V38.203zm-3.21 17.09c0-.255-.019-.51-.057-.761a5.058 5.058 0 00-1.67-3.08 4.936 4.936 0 00-3.25-1.226 4.936 4.936 0 00-3.251 1.226 5.058 5.058 0 00-1.67 3.08 5.083 5.083 0 001.402 4.322 4.95 4.95 0 003.523 1.479 4.95 4.95 0 003.524-1.479 5.083 5.083 0 001.46-3.57l-.01.01zm-46.264 0c0-.255-.02-.51-.058-.761a5.058 5.058 0 00-1.67-3.08 4.936 4.936 0 00-3.25-1.226 4.935 4.935 0 00-3.251 1.226 5.058 5.058 0 00-1.67 3.08 5.083 5.083 0 001.402 4.322 4.95 4.95 0 003.523 1.479 4.95 4.95 0 003.524-1.479 5.083 5.083 0 001.46-3.57l-.01.01zM9.32 46.017v6.836h5.841v-.049c.117-.334.255-.66.415-.976l.087-.176c.165-.319.352-.625.559-.918l.106-.147c.218-.296.457-.576.713-.84l.067-.058c.26-.26.537-.501.83-.723l.077-.059c.307-.218.629-.413.963-.585l.154-.088a7.82 7.82 0 01.964-.42l.183-.059a7.684 7.684 0 011.06-.264h.145a7.071 7.071 0 012.342 0h.145c.36.063.713.151 1.06.264l.184.059c.33.121.652.265.963.43l.154.087c.335.172.657.368.964.586l.068.05c.296.223.576.468.838.732l.058.048c.26.266.502.55.723.85l.096.127c.213.311.403.638.57.977l.076.156c.166.334.308.68.424 1.035h27.682v-6.836l-48.51-.04zm0-15.255H21.37c.383 0 .75.154 1.022.43a1.475 1.475 0 010 2.07 1.436 1.436 0 01-1.022.43H9.32v4.883h48.511V27.138h-7.595c-.383 0-.751-.155-1.022-.43a1.475 1.475 0 010-2.071c.271-.275.639-.43 1.022-.43h7.595v-4.55H9.321v4.56h4.655c.383 0 .751.155 1.022.43a1.475 1.475 0 010 2.072 1.436 1.436 0 01-1.022.428H9.32v3.614z" fill="#fff"/></svg><svg fill="none" viewBox="0 0 120 120" id="done" xmlns="http://www.w3.org/2000/svg"><circle cx="60" cy="60" r="60" fill="#28285A"/><g clip-path="url(#iclip0_302_106)"><path d="M84.268 42.373a2.5 2.5 0 00-3.536 0L50.781 72.325 39.268 60.812a2.5 2.5 0 10-3.536 3.535l13.28 13.28a2.5 2.5 0 003.536 0l31.72-31.719a2.5 2.5 0 000-3.535z" fill="#fff"/></g><defs><clipPath id="iclip0_302_106"><path fill="#fff" transform="translate(35 35)" d="M0 0h50v50H0z"/></clipPath></defs></svg><svg fill="#fff" viewBox="0 0 700 700" id="socket" xmlns="http://www.w3.org/2000/svg"><path d="M324.8 406.5a20.926 20.926 0 006.16 14.895l5.04 5.04v.003a21.011 21.011 0 0014.952 6.16 20.697 20.697 0 008.23-1.68l24.024 24.079a99.621 99.621 0 0070.898 29.344 98.516 98.516 0 0028.78-4.2l29.513 29.457a5.609 5.609 0 007.898 0l9.465-9.464 35.617 35.617h-.004a5.611 5.611 0 003.977 1.62 5.607 5.607 0 003.922-1.62l32.535-32.535v-.004a5.597 5.597 0 000-7.895L570.19 459.7l9.41-9.238a5.611 5.611 0 000-8.066l-29.68-29.68a98.665 98.665 0 004.199-28.782 99.646 99.646 0 00-29.344-70.898l-23.578-23.855a20.563 20.563 0 001.68-8.23 20.978 20.978 0 00-6.16-14.953l-5.04-5.04a21.676 21.676 0 00-29.848 0l-6.047 6.048-41.16-41.215A24.14 24.14 0 00397.36 218a24.118 24.118 0 00-17.566 7.067 24.15 24.15 0 00-7.066 17.566 24.122 24.122 0 007.79 17.258l41.214 41.215-50.398 50.398-41.44-41.27a24.135 24.135 0 10-34.102 34.105l41.215 41.16-6.047 6.047a20.992 20.992 0 00-6.16 14.953zm269.3 93.016l-24.586 24.586-31.641-31.641 24.586-24.586zm-26.152-52.977l-9.465 9.406-32.535 32.535-9.406 9.465-22.121-21.949a100.071 100.071 0 0051.574-51.574zm-50.906-125.38a89.03 89.03 0 0127.547 63.371 89.063 89.063 0 01-26.074 63.988 89.032 89.032 0 01-127.359-1.473l-22.961-22.961 125.89-125.89zm-128.91-69.16c-4.996-5.059-4.996-13.195 0-18.258 5.059-4.992 13.195-4.992 18.254 0l41.215 41.215-18.258 18.199zm-84.395 84.391c-5.023-5.047-5.023-13.207 0-18.254 5.063-4.996 13.199-4.996 18.258 0l41.16 41.215-18.199 18.258zm35.059 63.113l9.969-10.023 26.152-26.152 58.406-58.297 26.152-26.152 10.023-10.078a9.685 9.685 0 017-2.914 9.586 9.586 0 016.945 2.914l5.098 5.04h-.004a9.842 9.842 0 012.855 7 9.731 9.731 0 01-2.855 6.944l-130.65 130.76a10.074 10.074 0 01-13.941 0l-5.04-5.097-.003.004a9.582 9.582 0 01-2.91-6.946 9.685 9.685 0 012.8-7zM129.64 100.07l-9.242 9.465a5.611 5.611 0 000 8.066l29.68 29.68a98.665 98.665 0 00-4.2 28.781 99.646 99.646 0 0029.345 70.898l24.078 24.023h.004a20.563 20.563 0 00-1.68 8.23 20.978 20.978 0 006.16 14.954l5.04 5.039a21.155 21.155 0 0014.921 6.156c5.594 0 10.961-2.21 14.926-6.156l130.37-130.76c3.945-3.969 6.156-9.332 6.156-14.926s-2.21-10.957-6.156-14.922l-5.039-5.04v-.003a21.667 21.667 0 00-23.071-4.422l-24.137-24.137a99.621 99.621 0 00-70.898-29.344 98.516 98.516 0 00-28.781 4.2l-29.512-29.458a5.609 5.609 0 00-7.898 0l-9.465 9.465-35.781-35.84a5.602 5.602 0 00-7.899 0L94.026 56.554a5.602 5.602 0 000 7.898zm212.46 41.383v.004a9.722 9.722 0 016.941-2.856 9.842 9.842 0 017 2.856l5.04 5.098.003-.004a9.582 9.582 0 012.91 6.945 9.685 9.685 0 01-2.8 7l-130.7 130.7a10.027 10.027 0 01-13.945 0l-5.098-5.04h.004a9.842 9.842 0 01-2.855-7 9.731 9.731 0 012.855-6.944zm-96.211-54.598a88.195 88.195 0 0162.945 26.098l22.961 22.961-125.89 125.89-22.961-22.961h.004a89.042 89.042 0 01.004-125.894 89.048 89.048 0 0162.938-26.09zm-71.848-15.344l9.406-9.465L205.568 84a100.071 100.071 0 00-51.574 51.574l-22.062-22.12 9.465-9.407zm-43.566-35.617l31.641 31.641-24.586 24.586-31.641-31.641z"/></svg><svg fill="none" viewBox="0 0 80 80" id="tools" xmlns="http://www.w3.org/2000/svg"><g clip-path="url(#kclip0_208_79)"><path d="M54.796 44.16l-1.506 1.52-5.153-5.12.08-.08 5.787-5.84 3.33.16c3.25.16 6.342-1.52 7.927-4.4L71.207 20l-3.964-4-6.58 6.64-3.488-3.44 6.66-6.48-4.44-4.48-9.99 6.24c-2.616 1.6-4.201 4.64-4.122 7.76L45.44 26l-5.866 5.84-.08.08-10.306-10.4-3.567-8.4-10.544-3.2-3.885 3.92 3.171 10.64 8.324 3.44 10.307 10.4-.635.64-5.787 5.84-3.33-.16c-3.25-.16-6.342 1.52-7.928 4.4L9.37 59.44l3.964 4 6.58-6.64 3.489 3.52-6.66 6.48 4.44 4.48 9.99-6.24c2.615-1.6 4.201-4.64 4.122-7.76l-.159-3.68 5.867-5.84.555-.56 5.232 5.12-1.585 1.6 14.27 14.24c1.348 1.36 3.092 2 4.836 2 1.744 0 3.488-.72 4.836-2 1.268-1.28 1.982-2.96 1.982-4.88s-.714-3.6-1.982-4.88l-14.35-14.24zM23.956 25.6l-7.451-3.28-2.379-7.68 1.665-1.68 7.77 2.16 3.012 7.68 10.544 10.64-2.775 2.8L23.957 25.6zm23.626 1.2l-.159-4.88c0-2.24 1.11-4.4 2.934-5.52l8.483-5.2 1.506 1.36-6.58 6.64 7.056 7.12 6.58-6.64.872.88-4.915 8.64c-1.269 2-3.33 3.28-5.709 3.12l-4.44-.24-20.295 20.64.08 4.88c0 2.24-1.11 4.4-2.934 5.52l-8.403 5.28-1.507-1.36 6.58-6.64-7.055-7.12-6.58 6.64-.873-.88 4.916-8.64c1.268-2 3.33-3.28 5.708-3.12l4.44.24L47.582 26.8zM43.38 45.6l3.092-3.12 5.153 4.96-3.092 3.12-5.153-4.96zm24.101 20.8c-1.744 1.76-4.44 1.76-6.184 0L48.771 53.92l6.184-6.24 12.526 12.48c.714.88 1.269 1.84 1.269 3.12s-.397 2.24-1.269 3.12z" fill="#fff"/></g><defs><clipPath id="kclip0_208_79"><path fill="#fff" d="M0 0h80v80H0z"/></clipPath></defs></svg></svg>